<svg width="24" height="24" viewBox="0 0 24 24" fill="none" xmlns="http://www.w3.org/2000/svg">
  <path d="M10.1098 11.1499H7.45982C6.82982 11.1499 6.31982 11.6599 6.31982 12.2899V17.4099H10.1098V11.1499Z"
    stroke="#9CA3AF" stroke-width="1.5" stroke-miterlimit="10" stroke-linecap="round" stroke-linejoin="round" />
  <path
    d="M12.7611 6.6001H11.2411C10.6111 6.6001 10.1011 7.1101 10.1011 7.7401V17.4001H13.8911V7.7401C13.8911 7.1101 13.3911 6.6001 12.7611 6.6001ZM16.5481 12.8501H13.8981V17.4001H17.6881V13.9901C17.6781 13.3601 17.1681 12.8501 16.5481 12.8501Z"
    stroke="#9CA3AF" stroke-width="1.5" stroke-miterlimit="10" stroke-linecap="round" stroke-linejoin="round" />
  <path d="M9 22H15C20 22 22 20 22 15V9C22 4 20 2 15 2H9C4 2 2 4 2 9V15C2 20 4 22 9 22Z" stroke="#9CA3AF"
    stroke-width="1.5" stroke-linecap="round" stroke-linejoin="round" />
</svg>