<svg width="40" height="40" viewBox="0 0 40 40" fill="none" xmlns="http://www.w3.org/2000/svg">
  <g clip-path="url(#clip0_235_21084)">
    <path
      d="M20.0003 8.15558e-08C16.0444 -0.000357076 12.1772 1.17237 8.88788 3.36988C5.59851 5.56739 3.03466 8.69098 1.52056 12.3456C0.00646598 16.0003 -0.389876 20.0219 0.381659 23.9018C1.15319 27.7817 3.05795 31.3457 5.85506 34.143C8.65216 36.9404 12.216 38.8455 16.0958 39.6174C19.9757 40.3893 23.9973 39.9933 27.6521 38.4795C31.3069 36.9657 34.4307 34.4022 36.6285 31.113C38.8263 27.8238 39.9994 23.9568 39.9994 20.0009C39.9994 14.6966 37.8924 9.60961 34.1419 5.85877C30.3914 2.10792 25.3045 0.000478978 20.0003 8.15558e-08V8.15558e-08ZM7.45727 17.6967C6.90889 17.6971 6.37273 17.5348 5.91662 17.2303C5.46051 16.9259 5.10495 16.493 4.89493 15.9864C4.68491 15.4799 4.62986 14.9224 4.73676 14.3845C4.84366 13.8467 5.10769 13.3526 5.49545 12.9648C5.88322 12.5771 6.37728 12.313 6.91514 12.2061C7.45301 12.0992 8.01049 12.1543 8.51706 12.3643C9.02363 12.5743 9.45652 12.9299 9.76096 13.386C10.0654 13.8421 10.2277 14.3783 10.2274 14.9266C10.2274 15.2904 10.1557 15.6506 10.0165 15.9867C9.87728 16.3228 9.67324 16.6282 9.41602 16.8854C9.15879 17.1426 8.85342 17.3467 8.51734 17.4859C8.18126 17.6251 7.82105 17.6967 7.45727 17.6967V17.6967ZM12.5821 11.9182C13.978 10.0384 16.1503 9.83613 16.6126 9.83613H28.139L20.0003 20.0135H16.4754C15.3865 20.0457 14.319 19.7077 13.4471 19.0547C11.6756 17.6967 11.5907 15.5858 11.5853 15.2968C11.5197 14.0896 11.8717 12.8965 12.5821 11.9182ZM27.4166 28.1035C26.0226 29.9869 23.8502 30.1892 23.3861 30.1892H11.8616L20.0003 20.0099H23.5252C24.614 19.9801 25.681 20.3186 26.5535 20.9706C28.325 22.325 28.408 24.4395 28.4152 24.7267C28.4802 25.9347 28.1276 27.1283 27.4166 28.1071V28.1035ZM32.5433 27.8687C31.9953 27.8687 31.4597 27.7062 31.0041 27.4018C30.5485 27.0973 30.1935 26.6646 29.9839 26.1583C29.7743 25.652 29.7195 25.095 29.8266 24.5576C29.9336 24.0202 30.1976 23.5266 30.5852 23.1393C30.9728 22.7519 31.4665 22.4883 32.004 22.3816C32.5414 22.2749 33.0985 22.33 33.6046 22.5399C34.1107 22.7499 34.5432 23.1052 34.8474 23.561C35.1515 24.0168 35.3137 24.5525 35.3133 25.1005C35.3136 25.4644 35.2421 25.8248 35.103 26.1611C34.9639 26.4974 34.7599 26.8029 34.5027 27.0604C34.2454 27.3178 33.94 27.522 33.6038 27.6613C33.2676 27.8006 32.9072 27.8723 32.5433 27.8723V27.8687Z"
      fill="#3B82F6" />
  </g>
  <defs>
    <clipPath id="clip0_235_21084">
      <rect width="40" height="40" fill="white" />
    </clipPath>
  </defs>
</svg>